<svg xmlns="http://www.w3.org/2000/svg" xml:space="preserve" id="Layer_1" x="0" y="0" style="enable-background:new 0 0 377.77 86.86" version="1.1" viewBox="0 0 377.77 86.86"><style>.st0{fill:#fff}.st1{fill:#093390}.st2{fill:#ffde00}.st3{fill:none}</style><path d="M373.34 25.74c2.45 0 4.44-1.99 4.44-4.44v-7.65c0-2.45-1.99-4.44-4.44-4.44h-8.86c-3.41 0-6.5 1.38-8.75 3.6a8.224 8.224 0 0 0-6.83-3.6h-6.29c.02-.37.03-.73.03-1.11V5.08a4.44 4.44 0 0 0-4.43-4.44h-7.65c-2.45 0-4.44 1.99-4.44 4.44v3.03c0 .61-.5 1.11-1.11 1.11h-11.08c-2.45 0-4.43 1.99-4.43 4.44v2.16c-2.1-3.92-6.23-6.59-10.97-6.59h-5.7c-4.29 0-8.07 2.18-10.31 5.48v-1.05c0-2.45-1.99-4.44-4.44-4.44h-19.49c-6.82 0-12.37 5.55-12.37 12.37v16.57a21.8 21.8 0 0 0 3.05 11.13c-1.56-2.07-3.67-3.7-6.11-4.67.06-.29.09-.59.09-.9v-7.65c0-2.45-1.99-4.44-4.44-4.44h-2.24c.04-.53.06-1.07.06-1.62v-4.26h2.18c2.45 0 4.44-1.99 4.44-4.44v-7.65c0-2.45-1.99-4.44-4.44-4.44h-43.35c-2.45 0-4.44 1.99-4.44 4.44v7.65c0 2.45 1.99 4.44 4.44 4.44h2.18V30c0 .55.02 1.09.06 1.62h-2.24c-2.45 0-4.44 1.99-4.44 4.44v7.53h-5.91c-2.32 0-4.19 1.78-4.4 4.05V40.1h5.84c2.45 0 4.44-1.99 4.44-4.44v-7.65c0-2.45-1.99-4.44-4.44-4.44h-5.84v-9.93a4.44 4.44 0 0 0-4.43-4.44h-7.65c-2.45 0-4.44 1.99-4.44 4.44v15.91a20.676 20.676 0 0 0-11.8-13.64v-2.27c0-2.45-1.98-4.44-4.43-4.44h-7.65c-2.45 0-4.44 1.99-4.44 4.44v2.27a20.702 20.702 0 0 0-12.51 19.05c0 6.14 2.76 11.87 7.27 15.75l-7.1 5.48a8.263 8.263 0 0 0-2.77 9.21 8.256 8.256 0 0 0 7.82 5.6h25.04c3.55 0 7.13-.5 10.57-1.48v1.62c0 2.45 1.99 4.44 4.44 4.44h7.65c2.45 0 4.43-1.99 4.43-4.44V56.06a4.42 4.42 0 0 0 4.4 4.04h15.66a12.605 12.605 0 0 0-3.02 8.19v4.23c0 6.97 5.67 12.64 12.64 12.64h36.23a4.44 4.44 0 0 0 4.44-4.43v-7.65c0-2.25-1.68-4.11-3.85-4.4 3.02-2.62 4.94-6.49 4.94-10.8 0-2.5-.65-4.84-1.78-6.89 3.98 5.48 10.44 9.05 17.72 9.05h14.51c4.9 0 9.24-2.48 11.81-6.26v1.82c0 2.45 1.99 4.44 4.44 4.44h7.65c2.45 0 4.43-1.98 4.43-4.44V43.86c1.87 9.56 10.29 16.79 20.38 16.79 4.3 0 8.49-1.35 11.99-3.82h17.37v8.05c0 2.45 1.99 4.44 4.44 4.44h7.65c2.45 0 4.44-1.98 4.44-4.44V53.4c0-5.66-3.61-10.5-8.67-12.32V25.74h4.81zM164.22 51.83a22.5 22.5 0 0 1-10.57 2.64h-.81s3.35-2.58 3.37-2.6c3.97-2.84 6.78-6.94 8.02-11.54v11.5zm116.17-8.31h-12.27c-2.96 0-5.37-2.41-5.37-5.37V25.74h15.33c.84 0 1.63-.24 2.31-.64v18.42zm30.57-7.66V24.58c.79.71 1.82 1.16 2.97 1.16h2.19a20.64 20.64 0 0 0-5.16 10.12zm41.08 2.19c-.35-4-1.84-7.74-4.25-10.85l4.25-2.07v12.92z" class="st0"/><path d="M186.58 28.01H176.3V13.65h-7.65v40.7l-.82.51a26.927 26.927 0 0 1-14.19 4.04h-13.82l13.62-10.51-.01-.01c4.26-2.95 7.06-7.87 7.06-13.43 0-7.69-5.35-14.14-12.51-15.87v-5.45h-7.65v5.45c-7.17 1.73-12.51 8.18-12.51 15.87 0 7.02 4.45 12.99 10.67 15.31l-12.22 9.43c-1.3 1-1.81 2.72-1.29 4.26a3.822 3.822 0 0 0 3.62 2.59h25.04c5.22 0 10.34-1.2 15.01-3.45v8.03h7.65V35.66h10.28v-7.65zm-51.12 6.96c0-4.79 3.9-8.69 8.69-8.69 4.79 0 8.69 3.89 8.69 8.69 0 4.79-3.9 8.69-8.69 8.69-4.79-.01-8.69-3.91-8.69-8.69zM238.82 36.06h-7.78c.76-1.76 1.17-3.79 1.17-6.06v-5.84h-7.65V30c0 3.15-.9 6.06-7.4 6.06-6.51 0-7.4-2.91-7.4-6.06v-5.84h-7.65V30c0 2.27.41 4.3 1.16 6.06h-7.78v7.65h43.34v-7.65zM210.42 67.74h27.46c5.44 0 9.86-4.43 9.86-9.86 0-5.44-4.42-9.86-9.86-9.86H185.14v7.65h52.74a2.21 2.21 0 0 1 0 4.42h-27.46c-4.52 0-8.21 3.68-8.21 8.21v4.23c0 4.53 3.68 8.2 8.21 8.2h36.23v-7.65h-36.23c-.31 0-.55-.25-.55-.55V68.3c0-.31.25-.56.55-.56zM298.52 13.65h-5.7c-4.41 0-8.01 3.59-8.01 8v24.11c0 1.21-.98 2.19-2.19 2.19h-14.51c-5.4 0-9.8-4.4-9.8-9.8V21.58c0-.15.12-.28.28-.28h19.49v-7.65h-19.49c-4.37 0-7.93 3.56-7.93 7.93v16.57c0 9.62 7.83 17.45 17.46 17.45h14.51c5.43 0 9.84-4.41 9.84-9.84V21.65c0-.19.16-.35.35-.35h5.7c.2 0 .35.16.35.35V55.6h7.65V21.65c.01-4.41-3.58-8-8-8zM364.48 21.3h8.86v-7.65h-8.86c-4.41 0-8 3.59-8 8v23.09h-9.53c.48-1.54.74-3.17.74-4.86 0-5.82-3.07-10.93-7.67-13.82l10.56-5.14a3.829 3.829 0 0 0-1.68-7.27h-11.93c.79-1.69 1.24-3.56 1.24-5.54V5.08h-7.65v3.03c0 3.06-2.49 5.54-5.54 5.54h-11.07v7.65h18.37l-7.07 3.44c-6.01 2.43-10.25 8.3-10.25 15.14 0 9.01 7.33 16.34 16.34 16.34 3.99 0 7.64-1.44 10.48-3.82h22.31c.55 0 1 .45 1 1v11.48h7.65V53.4c0-4.77-3.88-8.65-8.65-8.65h-.01v-23.1c.01-.19.16-.35.36-.35zm-33.14 27.27c-4.79 0-8.69-3.89-8.69-8.69 0-4.79 3.9-8.69 8.69-8.69 4.79 0 8.68 3.9 8.68 8.69.01 4.79-3.89 8.69-8.68 8.69zM195.48 13.65h43.34v7.65h-43.34z" class="st1"/><path d="M375.53 69.38a4.44 4.44 0 0 0-3.66-1.93h-2.36c-.57 0-1.12.11-1.63.31-.51-.2-1.06-.31-1.63-.31h-1.06a4.394 4.394 0 0 0-3.44-1.65h-1.65l-.01-.01a5.662 5.662 0 0 0-4.04-1.66c-1.54 0-2.98.59-4.02 1.64-.46.46-.82 1.01-1.1 1.59-.11 0-.21-.02-.31-.02-.77 0-1.49.11-2.18.29-.46-.17-.95-.27-1.47-.27-.53 0-1.05.05-1.55.16-.25-.04-.51-.06-.76-.06h-2.37c-.67 0-1.29.16-1.86.42-.84-.31-1.84-.5-3-.5-.82 0-1.6.11-2.35.31-.45-.15-.92-.23-1.4-.23h-2.37c-.53 0-1.04.09-1.51.26-.25-.09-.52-.16-.79-.2-.28-.64-.66-1.22-1.15-1.72-1.06-1.07-2.5-1.66-4.05-1.66-1.54 0-2.97.59-4.03 1.64-.47.46-.82 1.01-1.1 1.59-.09 0-.17-.01-.26-.01-.55 0-1.08.05-1.6.16-.25-.04-.52-.07-.79-.07h-2.37c-.31 0-.61.03-.91.09-.29-.06-.6-.09-.91-.09h-2.37c-.44 0-.86.06-1.25.18-.4-.12-.82-.18-1.25-.18h-2.37c-1.18 0-2.24.47-3.03 1.21-1.08-.72-2.57-1.29-4.58-1.29-.33 0-.66.02-.98.06a4.432 4.432 0 0 0-4.06-2.65h-2.37c-.26 0-.52.02-.76.06a9.14 9.14 0 0 0-1.73-.17c-.92 0-1.8.15-2.61.43-.88-.28-1.79-.43-2.7-.43-1.86 0-3.54.6-4.86 1.73-.41.36-.77.75-1.08 1.19-.63-.14-1.28-.23-1.98-.23-.87 0-1.74.1-2.57.29-.41-.13-.84-.2-1.28-.2h-2.32c-.5 0-.98.08-1.43.24-.45-.15-.94-.24-1.43-.24h-2.27c-.49 0-.98.08-1.43.23a4.51 4.51 0 0 0-1.43-.23h-2.41a4.438 4.438 0 0 0-4.17 5.95l2.62 7.21a4.44 4.44 0 0 0 4.17 2.92h2.34c.48 0 .94-.08 1.38-.22.44.14.9.22 1.38.22h2.35c.74 0 1.45-.19 2.08-.53.81.37 1.82.64 3.06.64.54 0 1.07-.05 1.57-.15.2.03.4.04.61.04h2.33c.35 0 .69-.05 1.01-.13.33.08.66.13 1.01.13h2.36c.52 0 1.02-.1 1.48-.27.46.17.96.27 1.48.27h2.36c.5 0 .98-.08 1.43-.23.45.15.93.23 1.43.23h2.37c.7 0 1.35-.18 1.94-.46.97.36 2.03.54 3.15.54 1.25 0 2.43-.22 3.47-.66.7-.28 1.33-.67 1.91-1.12 1.27 1.16 2.93 1.8 4.75 1.8h.08c.51-.01 1.01-.07 1.49-.17.24.04.49.06.74.06h2.37c.31 0 .61-.03.91-.09.29.06.59.09.91.09h2.37c.46 0 .9-.07 1.32-.2.42.13.86.2 1.32.2h2.36c.28 0 .54-.03.81-.08.26.05.53.08.8.08H325c.63 0 1.23-.14 1.78-.37.55.24 1.14.37 1.76.37h2.44c.94 0 1.83-.3 2.56-.82 1.18.59 2.51.9 3.95.9 1.06 0 2.06-.17 2.98-.49.56.26 1.18.4 1.83.4h2.37c.79 0 1.53-.22 2.17-.59.22.09.44.17.66.24.98.31 2.02.46 3.08.46.98 0 1.89-.14 2.73-.42.5.19 1.04.31 1.61.31h2.35c.66 0 1.27-.15 1.83-.4.33.13.67.24 1.03.32.26.41.58.78.98 1.09.71.56 1.48.98 2.29 1.26s1.68.42 2.57.42c1.59 0 3.07-.45 4.28-1.3 1.16-.82 2.05-1.97 2.68-3.51l3.09-7.92c.51-1.34.34-2.88-.49-4.09z" class="st0"/><path d="m266.22 76.76-1.42-4.88h-2.27l-1.41 4.88-1.44-4.88h-2.42l2.63 7.21h2.35l1.38-4.45 1.38 4.45h2.34l2.64-7.21h-2.32zM273.83 71.79c-.58 0-1.13.06-1.67.19s-1.1.33-1.69.59l.65 1.6c.38-.19.76-.33 1.14-.43.38-.1.72-.15 1.02-.15.45 0 .78.09 1.02.28.23.18.35.45.35.8v.08h-1.88c-.89.01-1.57.21-2.04.59-.48.38-.72.92-.72 1.6 0 .67.22 1.22.66 1.63.44.41 1.04.62 1.8.62.97 0 1.7-.31 2.17-.92v.81h2.33V74.4c-.01-.83-.29-1.47-.84-1.93-.53-.45-1.3-.68-2.3-.68zm.83 4.86c-.07.28-.24.5-.51.67-.27.17-.58.26-.93.26-.3 0-.54-.08-.71-.22a.744.744 0 0 1-.26-.59c0-.5.33-.75 1-.75h1.41v.63zM279.78 69.76c-.51.44-.77 1.04-.77 1.81v.66h-.97v1.58h.97v5.29h2.36v-5.3h1.6v-1.58h-1.6v-.47c0-.25.08-.44.23-.57.15-.13.35-.2.59-.2.18 0 .44.06.8.19l.31-1.8c-.51-.19-1.02-.28-1.54-.28-.81.01-1.47.23-1.98.67zM285.1 69.76c-.51.44-.77 1.04-.77 1.81v.66h-.97v1.58h.97v5.29h2.36v-5.3h1.6v-1.58h-1.6v-.47c0-.25.07-.44.23-.57.15-.13.35-.2.58-.2.18 0 .44.06.8.19l.31-1.8c-.51-.19-1.02-.28-1.54-.28-.8.01-1.46.23-1.97.67zM289.56 69.2h2.37v9.89h-2.37zM296.97 71.8c-.74 0-1.4.15-1.97.46-.57.31-1.01.74-1.32 1.31-.31.56-.47 1.22-.47 1.95s.15 1.37.46 1.92c.31.55.75.98 1.33 1.28.58.3 1.25.45 2.03.45.66 0 1.26-.11 1.79-.33.53-.22.98-.54 1.35-.95l-1.24-1.24c-.24.24-.5.42-.79.55-.29.13-.59.19-.9.19-.41 0-.75-.11-1.04-.32-.29-.22-.48-.53-.6-.94h5.01c.01-.1.01-.24.01-.43 0-1.21-.32-2.16-.95-2.85-.63-.7-1.53-1.05-2.7-1.05zm-1.43 3.05c.08-.43.25-.77.5-1.01.25-.25.57-.37.94-.37.4 0 .72.13.97.38.24.25.36.59.36 1.01h-2.77zM309.46 75.44c0 .48-.12.87-.36 1.17-.24.3-.57.45-.99.46-.36 0-.64-.12-.85-.34-.21-.23-.31-.55-.31-.96v-3.88h-2.37v4.56c0 .84.23 1.5.7 2.01.47.5 1.09.75 1.87.75 1.05-.02 1.82-.44 2.31-1.28v1.18h2.37V71.9h-2.37v3.54zM318.4 71.79c-.53 0-.99.11-1.39.32-.4.21-.74.53-.99.95v-1.17h-2.37v7.21h2.37v-3.81c.04-.41.19-.74.45-.99.25-.25.58-.38.97-.38.37 0 .67.12.89.35.22.24.33.56.33.96v3.87h2.36v-4.55c0-.84-.24-1.51-.71-2.01-.49-.5-1.12-.75-1.91-.75zM323.78 68.56c-.37 0-.67.12-.9.35-.24.24-.35.54-.35.91 0 .36.12.67.35.9.23.24.53.36.9.36s.67-.12.9-.36c.23-.24.35-.54.35-.9 0-.37-.12-.68-.35-.91-.23-.23-.53-.35-.9-.35zM322.62 71.88h2.36v7.21h-2.36zM331.29 71.88l-1.52 5.01-1.51-5.01h-2.44l2.69 7.21h2.44l2.71-7.21zM337.4 71.8c-.74 0-1.4.15-1.97.46-.57.31-1.01.74-1.32 1.31-.31.56-.47 1.22-.47 1.95s.15 1.37.46 1.92c.31.55.75.98 1.33 1.28.58.3 1.25.45 2.03.45.67 0 1.26-.11 1.79-.33.53-.22.98-.54 1.35-.95l-1.24-1.24c-.24.24-.51.42-.79.55-.29.13-.59.19-.9.19-.41 0-.76-.11-1.04-.32-.28-.22-.48-.53-.6-.94h5.01c0-.1.01-.24.01-.43 0-1.21-.32-2.16-.95-2.85-.62-.7-1.52-1.05-2.7-1.05zm-1.42 3.05c.08-.43.25-.77.5-1.01.25-.25.57-.37.94-.37.4 0 .72.13.97.38.24.25.37.59.37 1.01h-2.78zM344.64 73.08v-1.2h-2.37v7.21h2.37v-3.68c.05-.46.25-.81.6-1.07s.8-.39 1.36-.39c.16 0 .28 0 .36.01v-2.17c-.51 0-.96.11-1.36.33-.39.23-.71.54-.96.96zM350.03 73.54c.12-.08.29-.11.49-.11.59 0 1.36.25 2.29.73l.8-1.55a5.819 5.819 0 0 0-3-.83c-.87 0-1.58.21-2.13.62-.55.41-.83.98-.83 1.71 0 .47.12.85.37 1.15.24.29.53.51.86.66.33.15.75.3 1.25.45.43.12.74.22.94.32.2.1.3.23.3.41 0 .14-.07.25-.2.33-.14.08-.32.11-.55.11-.4 0-.82-.08-1.27-.23a5.25 5.25 0 0 1-1.29-.66l-.75 1.53c.44.34.93.59 1.49.76.56.17 1.14.26 1.76.26.91 0 1.64-.21 2.2-.62.56-.41.85-.98.85-1.71 0-.48-.13-.87-.38-1.16-.25-.3-.54-.52-.89-.67-.34-.15-.77-.29-1.29-.44-.43-.12-.74-.22-.93-.32-.2-.1-.29-.23-.29-.38.01-.17.07-.28.2-.36zM356.05 68.56c-.37 0-.66.12-.9.35-.24.24-.36.54-.36.91 0 .36.12.67.36.9.23.24.53.36.9.36s.66-.12.9-.36.35-.54.35-.9c0-.37-.12-.68-.35-.91-.24-.23-.54-.35-.9-.35zM354.89 71.88h2.35v7.21h-2.35zM362.38 77.28c-.42 0-.63-.25-.63-.76V73.8h1.87v-1.58h-1.87v-2h-2.35v2h-1v1.58h1v3.09c0 .72.22 1.28.66 1.69.44.41 1.01.61 1.73.61.36 0 .71-.04 1.05-.13.34-.08.65-.2.92-.35l-.45-1.68c-.37.17-.67.25-.93.25zM369.51 71.88l-1.53 4.69-1.72-4.69h-2.44l2.99 7.04-.17.33c-.19.37-.48.55-.87.55-.17 0-.33-.03-.48-.09a1.93 1.93 0 0 1-.48-.31l-.99 1.64c.33.26.67.45 1.01.57.35.12.72.18 1.12.18.68 0 1.26-.16 1.72-.49.46-.33.83-.83 1.11-1.5l3.09-7.92h-2.36z" class="st2"/><path d="M110.25 66.74c-.24-.24-5.63-5.5-14.85-10.34l2.08-2.43c.6-.7.84-1.65.66-2.56-.18-.91-.77-1.68-1.6-2.1-.03-.02-.46-.23-1.23-.58.6-2.77.9-5.6.9-8.43C96.2 18.08 78.12 0 55.9 0 33.68 0 15.6 18.08 15.6 40.3c0 2.74.28 5.47.84 8.15-1.16.51-1.8.84-1.84.86a3.015 3.015 0 0 0-.94 4.65l2.08 2.43C6.52 61.23 1.14 66.5.89 66.74c-.73.73-1.05 1.78-.82 2.79.22 1.01.94 1.83 1.92 2.19l7.25 2.64c.14 2.21.43 5.92.95 9.6a3.013 3.013 0 0 0 5.05 1.77c4.19-3.96 10.26-7.18 12.4-8.25l2.9 3.14a3.01 3.01 0 0 0 3.54.66c.05-.03.11-.05.16-.08a.3.3 0 0 1 .04.08c.77 1.34 1.5 2.6 1.97 3.75.31.74.89 1.33 1.63 1.63.74.31 1.57.3 2.31 0 .46-.19.92-.36 1.39-.53.25-.06.48-.14.69-.22.11-.04.21-.09.32-.14 4.21-1.44 8.61-2.17 13.06-2.17 4.55 0 9.04.76 13.33 2.27.02.01.05.02.07.03.15.06.29.11.44.15.53.2 1.07.4 1.59.62.37.15.76.23 1.15.23.39 0 .78-.08 1.16-.23.74-.31 1.33-.89 1.63-1.63.48-1.15 1.2-2.41 1.97-3.75 0-.01.01-.01.01-.02.01 0 .03.01.04.02 1.19.59 2.63.32 3.54-.66l2.91-3.14c2.14 1.07 8.21 4.29 12.4 8.25.57.54 1.31.82 2.07.82.33 0 .67-.05.99-.17a3.027 3.027 0 0 0 1.99-2.42c.53-3.68.81-7.39.95-9.6l7.25-2.64c.97-.35 1.69-1.18 1.92-2.19.23-1.03-.08-2.08-.81-2.8z" class="st0"/><path d="M70.3 44.25h.02l4.5-4.5-.01-.01-4.51 4.51zM52.66 43h.02l3.25-3.25-.01-.01L52.66 43z" class="st3"/><path d="M55.9 3.02c-20.56 0-37.28 16.72-37.28 37.28 0 3.44.48 6.76 1.35 9.93.95-.39 2.05-.82 3.29-1.27-.73-2.77-1.13-5.67-1.13-8.66 0-18.62 15.15-33.77 33.77-33.77 18.62 0 33.77 15.15 33.77 33.77 0 3.07-.42 6.05-1.19 8.88 1.26.47 2.35.9 3.28 1.29.92-3.24 1.43-6.65 1.43-10.17C93.18 19.74 76.46 3.02 55.9 3.02z" class="st2"/><path d="m77.65 36.91 3.04-3.05c.78-.78.78-2.05 0-2.83-.78-.78-2.05-.78-2.83 0l-3.05 3.04-3.77-3.77-2.84 2.83 3.77 3.77-6.61 6.61-3.77-3.77-2.83 2.84.44.44c2.1.1 4.16.27 6.16.5h.02c1.69.2 3.33.45 4.93.72l4.51-4.51.01.01 2.84-2.84-.02.01zM80.49 39.75l-2.83 2.84 4.46 4.46c1.13.34 2.19.68 3.19 1.02a2 2 0 0 0 .37-.28c.78-.78.78-2.05 0-2.84l-5.19-5.2zM55.91 20.84l2.85-2.82-.01-.01 3.05-3.04c.78-.78.78-2.05 0-2.84-.78-.78-2.05-.78-2.84 0l-3.05 3.05-3.07-3.07c-.78-.78-2.05-.78-2.83 0-.78.78-.78 2.05 0 2.84l3.07 3.07-6.61 6.62-8.03-8.03c-.78-.78-2.05-.78-2.84 0-.78.78-.78 2.05 0 2.83l8.03 8.03-6.61 6.61L33.94 31c-.78-.78-2.05-.78-2.83 0-.78.78-.78 2.05 0 2.83l3.07 3.07-8.06 8.06c-.78.78-.78 2.05 0 2.84.05.04.09.08.14.12 1.16-.38 2.41-.77 3.73-1.15l7.02-7.02.01.01 2.82-2.85 6.61-6.61 9.46-9.46zM58.75 36.91l6.61-6.61.01.01 2.84-2.84-.01-.01 8.03-8.03c.78-.78.78-2.05 0-2.83-.78-.78-2.05-.78-2.84 0l-8.03 8.03-3.77-3.77-2.84 2.83 3.77 3.77-6.61 6.61-3.77-3.77-2.83 2.83 3.77 3.77-6.54 6.54c1.99-.22 4.03-.37 6.12-.45l3.26-3.26.01.01 2.83-2.83h-.01zM39.86 42.59l1.57 1.57c1.61-.27 3.28-.5 4.98-.69l-3.71-3.71-2.84 2.83zM42.41 80.95c.13.44.09.86-.13 1.24-.21.38-.58.67-1.09.87-.45.18-.87.21-1.27.11-.4-.12-.69-.38-.86-.81.46-.21.7-.31 1.17-.51.09.18.19.3.31.34.12.05.26.04.4-.02.17-.06.29-.17.35-.31.07-.15.07-.31 0-.49-.06-.18-.14-.3-.26-.36-.11-.06-.24-.09-.37-.06-.23.04-.35.06-.58.11-.44.07-.82.05-1.15-.08-.32-.14-.56-.35-.68-.67-.17-.41-.16-.82.05-1.23.24-.46.69-.78 1.17-.97.44-.17.88-.21 1.3-.08.42.12.69.38.84.75-.48.17-.72.26-1.19.44-.09-.14-.19-.24-.32-.27a.529.529 0 0 0-.37.02c-.17.07-.28.18-.34.32-.05.15-.05.31.01.47.06.15.14.25.27.31.12.05.24.07.37.05.24-.04.36-.06.59-.09.46-.07.84-.03 1.14.1.28.12.5.4.64.82M41.89 77.33c.51-.17.76-.25 1.26-.4.41 1.49.82 3 1.24 4.49.03.12.01.22-.06.33-.07.1-.17.17-.27.2-.28.09-.41.12-.69.22-.49-1.61-.98-3.23-1.48-4.84M47.87 80.96c-.66-.77-1.32-1.51-2.01-2.25 0-.02-.03-.06-.07-.12l-.08-.12s.03.07.05.15c.03.08.05.13.05.16.17.71.32 1.42.48 2.13.02.11 0 .23-.07.33a.53.53 0 0 1-.29.19c-.28.07-.42.11-.69.19-.42-1.64-.83-3.27-1.25-4.91.45-.13.69-.19 1.15-.31.7.71 1.39 1.43 2.06 2.18.01.02.05.06.08.12.02.06.08.13.08.13s-.02-.08-.05-.15a.502.502 0 0 1-.03-.14l-.48-2.52c.51-.11.78-.16 1.3-.25.24 1.53.5 3.06.75 4.61.01.12-.02.22-.1.32-.07.09-.18.14-.29.17-.24.02-.36.05-.59.09M52.53 79.89c-.31.35-.7.54-1.22.6-.39.04-.76-.03-1.11-.22-.35-.19-.62-.53-.79-1.01-.13-.35-.21-.73-.27-1.12-.07-.39-.08-.77-.06-1.14.04-.53.24-.95.59-1.22.36-.28.72-.45 1.1-.49.54-.06 1.01.04 1.39.3.37.25.61.65.72 1.15-.51.03-.77.06-1.27.1-.04-.21-.13-.38-.27-.49-.15-.12-.29-.17-.43-.16-.24.03-.41.19-.5.48-.09.29-.1.73-.02 1.3.07.63.18 1.06.32 1.3.13.23.33.34.56.31.12-.01.23-.09.35-.23.11-.13.17-.31.18-.55.5-.05.73-.08 1.23-.1-.04.46-.2.85-.5 1.19M54.64 76.02c.01.46.01.68.03 1.14.62-.01 1.27-.01 1.9 0 0 .24 0 .36-.01.6 0 .11-.04.2-.09.25-.07.05-.15.07-.27.07-.61-.01-.91-.01-1.52.01 0 .47.02.71.02 1.18.72-.02 1.43-.02 2.14 0-.01.21-.01.31-.01.51-.01.14-.04.23-.12.3-.07.06-.17.1-.31.09-.81 0-1.62 0-2.43.04-.14 0-.24-.03-.31-.09s-.11-.16-.12-.3c-.08-1.55-.14-3.11-.22-4.66 1.21-.06 2.41-.07 3.63-.04 0 .24-.01.35-.02.59-.01.12-.03.19-.09.25-.07.05-.16.07-.28.07-.64-.03-1.28-.03-1.92-.01M61.66 80.57c-.06.04-.15.05-.26.04-.89-.14-1.8-.24-2.71-.31.03-.39.09-.69.2-.89.11-.2.3-.45.59-.75.41-.42.83-.82 1.25-1.22.09-.09.16-.2.21-.3a.78.78 0 0 0 .02-.72.43.43 0 0 0-.29-.19c-.13-.01-.24.04-.34.15-.09.12-.15.3-.18.57-.48-.05-.72-.08-1.2-.12.03-.5.21-.88.52-1.16.31-.28.75-.39 1.3-.32.52.06.92.25 1.18.56.26.31.37.69.3 1.14-.04.23-.12.43-.24.6-.13.16-.29.32-.46.48-.51.46-1.01.93-1.49 1.42.61.07 1.21.16 1.82.24-.03.22-.04.33-.08.54-.04.11-.08.19-.14.24M65.4 79.92c-.1.44-.33.77-.67.97-.34.2-.72.26-1.16.17-.42-.09-.77-.29-1.01-.63-.24-.33-.33-.71-.26-1.17.11-.71.22-1.42.33-2.14.06-.4.27-.74.64-.97.36-.24.8-.31 1.29-.21.49.11.86.34 1.11.7.25.36.32.75.22 1.17-.17.7-.32 1.4-.49 2.11m-.71-2.36c.04-.22.04-.38-.02-.52a.386.386 0 0 0-.28-.23c-.13-.03-.24 0-.36.11-.1.09-.17.24-.21.45-.12.7-.25 1.4-.38 2.1-.03.2-.02.37.03.49.06.13.14.2.26.23.12.02.23-.01.32-.11.09-.09.17-.24.2-.45.15-.69.3-1.38.44-2.07M68.85 80.94c-.14.44-.39.74-.74.91-.36.19-.74.2-1.18.07-.43-.13-.74-.37-.96-.72-.21-.35-.27-.74-.17-1.19.16-.69.33-1.39.5-2.09.1-.4.33-.72.72-.93.37-.2.82-.23 1.3-.08.48.14.83.41 1.06.79.21.38.26.78.13 1.18-.23.7-.44 1.37-.66 2.06m-.53-2.42c.06-.21.06-.38.02-.52a.42.42 0 0 0-.26-.26c-.13-.04-.24-.01-.36.07-.11.09-.19.24-.24.44-.18.69-.36 1.37-.55 2.06-.06.2-.06.37-.01.49.04.13.12.22.23.26.12.03.23.01.34-.08.11-.09.17-.23.24-.43.2-.67.39-1.35.59-2.03M72.3 82.3c-.17.42-.45.7-.82.84-.38.14-.79.13-1.26-.06s-.78-.47-.97-.83c-.18-.37-.21-.78-.07-1.21.07-.21.18-.39.36-.54.18-.14.63-.3.63-.3.01-.03-.26-.39-.3-.61-.04-.21-.03-.42.04-.6.13-.39.38-.67.79-.82.39-.15.83-.14 1.32.06.5.2.84.51 1.03.89.18.38.18.77.03 1.14-.08.18-.21.35-.37.47-.18.13-.6.25-.61.25-.01.04.25.42.28.67.03.23 0 .45-.08.65m-1.09-.49a.78.78 0 0 0 .03-.52c-.05-.16-.13-.26-.25-.31-.12-.05-.25-.03-.4.05-.14.09-.24.22-.31.41-.06.18-.07.35-.02.51.05.15.13.26.25.3.13.05.26.04.38-.04.16-.09.25-.21.32-.4m.7-2.02a.71.71 0 0 0 .04-.47.374.374 0 0 0-.25-.28.362.362 0 0 0-.36.04c-.13.07-.21.2-.28.37-.06.17-.07.33-.02.47.05.14.12.23.23.27.11.05.24.03.35-.04.13-.07.22-.19.29-.36" class="st2"/><path d="M19.51 57.87C9.11 62.85 3.02 68.88 3.02 68.88l9.13 3.32s.24 5.76 1.03 11.32c5.57-5.27 13.98-9.18 13.98-9.18l-8.91-9.45 1.26-7.02zM91.63 57.87l1.26 7.03-8.91 9.45s8.41 3.91 13.98 9.18C98.76 77.96 99 72.2 99 72.2l9.13-3.32c-.01 0-6.1-6.03-16.5-11.01z" class="st1"/><path d="M95.18 52s-1.23-.62-3.42-1.53a99.612 99.612 0 0 0-6.45-2.41c-1.01-.34-2.07-.68-3.19-1.02-3.44-1.03-7.43-2.03-11.8-2.79h-.02c-1.6-.28-3.24-.52-4.93-.72h-.02c-2-.24-4.06-.41-6.16-.5-1.2-.05-2.41-.09-3.63-.09-.97 0-1.94.02-2.89.06h-.02c-2.09.07-4.13.23-6.12.45-.04.01-.09.01-.13.01-1.7.19-3.37.42-4.98.69-4.19.7-8.05 1.63-11.43 2.61-1.32.38-2.57.77-3.73 1.15-1.08.35-2.07.71-3 1.04-1.24.45-2.34.88-3.29 1.27-2.56 1.05-4.01 1.78-4.01 1.78l8.2 9.61c-2.96 1.2-4.74 2.53-4.74 2.53l11.52 12.43 1.83 1.98c3.31-1.63 6.54-2.77 9.48-3.57a57.18 57.18 0 0 1 7.41-1.5c3.63-.48 5.93-.39 5.93-.39s2.45-.09 6.3.44c2.11.29 4.64.77 7.41 1.55 2.83.8 5.93 1.91 9.09 3.46l2.32-2.5 11.03-11.9s-1.79-1.33-4.75-2.53L95.18 52z" class="st1"/><path d="M32.51 57.82c1.06-.3 1.89-.93 2.48-1.88.03-.07.04-.15.01-.23-.03-.07-.07-.13-.14-.16l-1.3-.69a.296.296 0 0 0-.21-.02c-.07.02-.13.05-.17.11-.3.44-.71.74-1.23.88-.59.17-1.15.1-1.69-.19-.54-.3-.89-.74-1.06-1.33-.17-.59-.1-1.15.2-1.69.3-.53.74-.88 1.33-1.05.52-.15 1.02-.11 1.51.1.07.03.14.03.21.01.07-.02.13-.07.16-.13l.75-1.27c.04-.07.05-.14.04-.22a.363.363 0 0 0-.13-.19c-1-.5-2.03-.6-3.09-.3-1.14.33-2 1-2.57 2.04-.58 1.03-.7 2.12-.38 3.26.32 1.14 1 2 2.04 2.58 1.01.57 2.1.69 3.24.37zM42.81 51.17c-.22-1.16-.83-2.08-1.81-2.74-.98-.67-2.05-.89-3.21-.66-1.16.22-2.08.83-2.74 1.81-.67.98-.89 2.05-.66 3.21.22 1.16.83 2.08 1.81 2.74.98.67 2.05.88 3.21.66 1.16-.22 2.08-.83 2.74-1.81.66-.97.88-2.04.66-3.21zm-2.44 2.07c-.32.51-.78.81-1.35.92-.58.11-1.11-.01-1.6-.36s-.79-.82-.9-1.42c-.12-.6-.01-1.16.31-1.66.33-.5.78-.81 1.35-.92.58-.11 1.11.01 1.6.35.49.35.79.83.9 1.43.12.61.01 1.16-.31 1.66zM43.22 47.56l.09.06c.14.11.22.25.23.43l.7 6.65c.01.08.05.16.11.21.07.05.14.07.22.07l1.54-.16c.08-.01.15-.05.2-.11a.31.31 0 0 0 .06-.23l-.28-2.67c0-.04.01-.07.04-.11.03-.03.06-.05.11-.06l3.35-.36c.08-.01.15-.04.2-.11a.36.36 0 0 0 .07-.22l-.13-1.21a.309.309 0 0 0-.11-.2c-.07-.05-.14-.08-.22-.07l-3.35.35c-.04.01-.08 0-.11-.03a.207.207 0 0 1-.06-.1l-.08-.81c0-.04.01-.08.04-.11s.06-.05.11-.06l3.47-.36c.08-.01.15-.05.2-.12.06-.07.08-.14.07-.22l-.14-1.29a.284.284 0 0 0-.12-.21.286.286 0 0 0-.22-.06l-5.89.62c-.07.01-.13.04-.17.09-.04.06-.07.12-.06.19 0 .1.05.17.13.21zM57.34 50.71l-.03-1.22c0-.08-.03-.15-.09-.21a.31.31 0 0 0-.22-.09l-3.37.08a.15.15 0 0 1-.11-.04.16.16 0 0 1-.05-.11l-.02-.82c0-.04.01-.08.04-.11a.16.16 0 0 1 .11-.05l3.49-.08c.09 0 .15-.04.21-.1.06-.06.09-.13.09-.21l-.03-1.3c0-.08-.04-.16-.1-.21-.06-.06-.13-.08-.22-.08l-5.92.15a.25.25 0 0 0-.18.08c-.05.05-.07.11-.07.18 0 .09.04.15.12.21.03.02.06.04.08.07.13.12.19.27.2.45l.16 6.69c0 .09.03.16.09.22a.3.3 0 0 0 .22.08l1.54-.04c.08 0 .15-.03.21-.09a.3.3 0 0 0 .08-.22l-.06-2.68c0-.04.01-.07.04-.11a.16.16 0 0 1 .11-.05l3.37-.08c.08 0 .15-.03.21-.09.07-.07.1-.14.1-.22zM58.73 54.06c.06.06.13.09.21.1l5.76.36c.09 0 .16-.02.22-.07.07-.06.1-.13.11-.21l.08-1.29c.01-.08-.02-.15-.08-.22a.266.266 0 0 0-.21-.1l-3.77-.23a.16.16 0 0 1-.11-.05.15.15 0 0 1-.04-.11l.05-.87c0-.04.02-.08.05-.1a.15.15 0 0 1 .11-.04l3.64.23c.09.01.16-.02.22-.07s.1-.12.11-.21l.07-1.21c.01-.08-.02-.15-.08-.22a.36.36 0 0 0-.21-.11l-3.64-.23c-.04 0-.08-.02-.11-.06-.03-.03-.04-.06-.04-.11l.05-.87c0-.04.02-.08.05-.1a.15.15 0 0 1 .11-.04l3.77.24c.09 0 .16-.02.22-.07.07-.06.1-.13.11-.21l.08-1.3c0-.09-.02-.16-.08-.22a.266.266 0 0 0-.21-.1L59 46.16a.33.33 0 0 0-.19.06c-.05.05-.08.11-.09.17 0 .09.03.16.1.22.03.02.05.05.08.08.12.13.17.28.16.46l-.42 6.68c0 .09.03.16.09.23zM66.28 54.57c.05.07.12.11.2.12l5.7.9c.08.01.16 0 .23-.05s.11-.12.12-.2l.21-1.29a.335.335 0 0 0-.06-.23.265.265 0 0 0-.2-.12l-3.73-.59c-.04 0-.08-.03-.1-.06-.03-.03-.04-.07-.03-.11l.14-.86c.01-.04.03-.07.06-.1.04-.03.07-.04.12-.03l3.6.57a.31.31 0 0 0 .36-.25l.19-1.2a.298.298 0 0 0-.06-.22.336.336 0 0 0-.2-.13l-3.6-.57c-.04-.01-.08-.03-.1-.06-.03-.03-.04-.07-.03-.11l.14-.86c.01-.04.03-.07.06-.1.01-.01.05-.02.1-.02l3.73.59c.08.01.16 0 .23-.05s.11-.12.13-.2l.2-1.28a.31.31 0 0 0-.06-.23.284.284 0 0 0-.2-.12l-6.13-.97c-.07-.01-.13 0-.19.05-.06.04-.09.1-.1.17-.01.08.01.16.08.23a.607.607 0 0 1 .18.55l-1.05 6.61c-.01.08 0 .15.06.22zM84.07 54.47c-.01-.06-.05-.1-.11-.12l-1.86-.55c-.05-.01-.09-.01-.14.03l-.86.72-.61-1.13c1.11-.27 1.78-.78 2-1.51.18-.61.11-1.15-.21-1.64s-.83-.84-1.54-1.05c-.67-.2-1.27-.21-1.82-.03-.66.21-1.09.66-1.3 1.36-.16.53-.08 1.15.25 1.85-.51.06-.96.24-1.35.54-.39.3-.65.68-.79 1.13-.23.77-.11 1.47.36 2.09.41.54 1 .93 1.75 1.15.89.26 1.7.2 2.45-.17l.3.61c.02.04.05.07.09.08l2.05.61c.04.01.08.01.12-.01.04-.02.07-.05.08-.09.01-.05 0-.1-.03-.16l-.99-2L84 54.63c.06-.05.08-.1.07-.16zm-5.64 1.18c-.24-.07-.44-.24-.6-.5-.16-.26-.21-.51-.13-.75.06-.2.18-.35.37-.46.12-.07.31-.15.59-.22l.89 1.83c-.41.16-.79.2-1.12.1zm1.35-3.57c-.25-.42-.34-.73-.28-.93a.6.6 0 0 1 .28-.36c.14-.07.3-.08.47-.02.17.05.3.13.39.24.12.13.15.29.1.47-.07.24-.39.44-.96.6zM40.05 61.53a.2.2 0 0 0-.11-.18c-.07-.04-.13-.05-.19-.03l-1.77.61c-.06.02-.1.07-.13.14-.02.04-.01.09-.01.13 0 .02-.01.05-.01.07.42 3.44.64 5.25.68 5.41l.05.24c.02.05.02.08-.01.09-.03.01-.05-.01-.07-.07l-.1-.21c-.08-.17-.93-1.78-2.54-4.82-.07-.13-.16-.18-.28-.14l-1.69.59c-.12.04-.16.13-.14.28.62 3.39.94 5.18.98 5.36l.05.23c.02.05.01.09-.01.09-.03.01-.05-.01-.07-.07l-.1-.21c-.07-.16-1.01-1.72-2.81-4.68a.273.273 0 0 0-.14-.14c-.06-.04-.13-.05-.18-.03l-.52.18-1.39.48c-.07.02-.12.08-.15.15-.03.08-.03.16 0 .24.03.1.1.17.2.2.04.02.08.04.11.06.07.04.13.09.19.16l1.04 1.64 3.75 5.96c.07.12.16.16.28.12l1.88-.65c.13-.05.19-.14.16-.28-.49-3.12-.76-4.75-.8-4.91l-.02-.12c-.02-.05-.01-.07.02-.09.03-.01.05.01.06.06l.06.11c.07.15.87 1.6 2.41 4.35.07.12.17.16.3.12l1.88-.65c.12-.04.16-.13.14-.27l-.93-8.87-.07-.65zM45.77 62.19l-.84-1.53c-.08-.14-.2-.19-.34-.16l-2.21.41a.22.22 0 0 0-.17.13c-.04.07-.05.15-.04.23.02.11.07.18.17.23v.01c.04.02.07.04.1.07h.01c.01.01.02.01.01.01l.08.08s0 .01.02.03c.03.03.05.07.07.1l.01.01c.05.09.08.18.1.27l.01.08v.05c0 .06 0 .12-.01.17l-1.13 8.39c-.01.09.01.16.06.21.05.05.12.06.22.04l1.59-.3a.38.38 0 0 0 .18-.09c.04-.04.07-.11.07-.2l.18-1.4 2.94-.55.67 1.24c.04.08.09.14.14.16.05.03.12.04.21.02l1.59-.3c.1-.02.16-.06.19-.12s.02-.14-.02-.21l-3.86-7.08zm-.05 4.32-1.42.26c-.06.01-.1-.02-.12-.09 0-.02-.01-.04-.01-.06a210.165 210.165 0 0 0 .27-2.93h.02l1.31 2.64c.01.02.02.03.02.05.02.07 0 .12-.07.13zM55.74 63.28c-.07-.08-.15-.11-.23-.1l-3.53.17c-.04 0-.08-.01-.12-.04a.21.21 0 0 1-.05-.13l-.05-.98v-.03c0-.05.01-.1.04-.13.03-.04.07-.06.11-.06l3.66-.17c.09 0 .16-.05.22-.13.06-.07.09-.16.09-.26l-.08-1.6a.388.388 0 0 0-.11-.26.304.304 0 0 0-.23-.1l-6.2.3c-.07 0-.13.04-.18.11-.06.04-.08.11-.08.2 0 .1.05.19.13.25a.82.82 0 0 1 .31.62l.06 1.24.33 7c0 .11.04.19.1.27.07.07.14.1.23.1l1.62-.08c.08 0 .16-.04.21-.12a.44.44 0 0 0 .08-.28l-.16-3.3c0-.05.01-.09.04-.13.03-.04.07-.06.11-.06l3.53-.17c.09 0 .16-.04.22-.12.06-.07.08-.16.08-.26l-.07-1.5c.01-.1-.02-.18-.08-.25zM64.03 60l-6.18-.56c-.07-.01-.14.02-.2.08s-.09.13-.1.21a.3.3 0 0 0 .1.27c.03.03.05.06.08.09.12.16.17.35.15.57l-.14 1.52-.6 6.69c-.01.11.01.2.07.28.06.08.13.12.22.13l1.61.14c.09.01.16-.02.23-.09a.42.42 0 0 0 .12-.26l.3-3.29c.01-.05.02-.09.06-.13.04-.03.08-.05.12-.05l3.52.32c.09.01.16-.02.23-.09.07-.07.11-.15.12-.25l.13-1.5c.01-.1-.02-.19-.07-.27-.06-.08-.13-.13-.21-.13l-3.52-.32c-.04 0-.08-.02-.11-.06a.23.23 0 0 1-.04-.14l.09-1v-.01c0-.05.02-.09.06-.12.04-.04.08-.05.12-.05l1.96.18 1.68.15c.09.01.17-.03.23-.1.02-.02.03-.04.04-.05.04-.06.07-.12.08-.19l.14-1.59c.01-.11-.01-.2-.07-.28a.407.407 0 0 0-.22-.1zM70.76 69.03l-3.55-.82a.12.12 0 0 1-.09-.08c-.02-.04-.03-.09-.02-.14l1.34-5.81.22-.94c.02-.1.01-.19-.03-.28-.05-.09-.11-.14-.2-.16l-2.01-.46c-.07-.02-.14 0-.2.05a.31.31 0 0 0-.13.2c-.03.1 0 .2.06.28.02.03.04.06.07.1.09.18.11.37.07.58l-.15.63-1.7 7.4c-.02.1-.01.2.03.28.04.09.11.14.2.16l5.58 1.29c.09.02.17 0 .25-.06.07-.06.12-.13.15-.24l.36-1.55c.02-.1.01-.19-.03-.28a.368.368 0 0 0-.22-.15zM80.49 64.59l-6.08-2.32a.26.26 0 0 0-.21.02c-.07.04-.12.1-.15.18-.04.1-.03.19.02.29.02.03.03.07.05.11.07.19.06.39-.02.59l-2.94 7.71c-.04.1-.04.19 0 .28.03.09.09.15.17.18l5.65 2.16c.08.03.17.02.25-.02a.43.43 0 0 0 .19-.21l.57-1.5c.04-.09.04-.19 0-.28a.278.278 0 0 0-.17-.18l-3.7-1.41a.196.196 0 0 1-.09-.09.17.17 0 0 1 0-.14l.38-1.01c.02-.05.05-.08.09-.1.04-.02.09-.03.13-.01l3.57 1.36c.08.03.17.03.25-.02a.36.36 0 0 0 .19-.21l.53-1.4c.04-.09.04-.19 0-.28a.32.32 0 0 0-.17-.19l-3.57-1.36a.196.196 0 0 1-.09-.09.17.17 0 0 1 0-.14l.38-1.01c.02-.05.05-.08.09-.1.04-.02.09-.03.13-.01l3.7 1.41c.08.03.17.03.25-.02a.43.43 0 0 0 .19-.21l.57-1.5c.04-.1.04-.19 0-.28-.01-.1-.07-.16-.16-.2z" class="st0"/></svg>